<svg xmlns="http://www.w3.org/2000/svg" width="310" height="662" viewBox="0 0 310 662">
    <path fill="#3C95B7" fill-rule="evenodd" d="M-349 542h112v120h-112V542zm128 0h120v120h-120V542zm136 0H35v120H-85V542zm136 0h120v120H51V542zm136 0h112v120H187V542zm-536-136h112v120h-112V406zm128 0h120v120h-120V406zm136 0H35v120H-85V406zm136 0h120v120H51V406zm136 0h112v120H187V406zm-536-136h112v120h-112V270zm128 0h120v120h-120V270zm136 0H35v120H-85V270zm136 0h120v120H51V270zm136 0h112v120H187V270zm-536-136h112v120h-112V134zm128 0h120v120h-120V134zm136 0H35v120H-85V134zm136 0h120v120H51V134zm136 0h112v120H187V134zM-221 0h120v120h-120V0zm136 0H35v120H-85V0zM51 0h120v120H51V0zm136 0h112v120H187V0z"/>
</svg>
