<svg xmlns="http://www.w3.org/2000/svg" xmlns:xlink="http://www.w3.org/1999/xlink" width="674" height="534" viewBox="0 0 674 534">
    <defs>
        <path id="a" d="M0 0h672.431v538.104H0z"/>
    </defs>
    <g fill="none" fill-rule="evenodd" transform="translate(.583 -1.61)">
        <mask id="b" fill="#fff">
            <use xlink:href="#a"/>
        </mask>
        <g fill="#DCEFC4" mask="url(#b)">
            <path d="M177.728 2.251h175.567v175.757H177.728V2.25zm356.956 0H710.25v175.757H534.684V2.25zm0 178.622H710.25V356.63H534.684V180.873zM356.206 2.251h175.566v175.757H356.206V2.25zm0 178.622h175.566V356.63H356.206V180.873zm178.478 178.622H710.25v175.756H534.684V359.495zM356.206 535.251V359.495h175.566v175.756H356.206zM177.728 359.495h175.567v175.756H177.728V359.495zM-.75 535.251V359.495h175.567v175.756H-.75zM177.728 356.63V180.873h175.567V356.63H177.728zM-.75 2.25h175.567v175.757H-.75V2.25zm0 354.379V180.873h175.567V356.63H-.75z"/>
        </g>
    </g>
</svg>
