<svg xmlns="http://www.w3.org/2000/svg" width="86" height="86" viewBox="0 0 86 86">
    <g fill="none" fill-rule="evenodd">
        <text fill="#000" font-family="Futura-Bold, Futura" font-size="9" font-weight="bold" letter-spacing="1.25">
            <tspan x="12.076" y="95">21RABBITS</tspan>
        </text>
        <path fill="#000" d="M0 0h86v86H0z"/>
        <path fill="#FFF" d="M15.128 73c4.181-13.642 16.358-23.617 30.731-23.617 14.409 0 26.647 9.924 30.8 23.617H15.129zm56.425-47.716L14.67 61.128C12.367 57.099 23.233 45.81 38.94 35.91c15.708-9.898 30.31-14.656 32.612-10.627zM46.532 13.5L9.716 57.936c-2.853-2.607 3.075-14.668 13.242-26.939 10.166-12.27 20.72-20.104 23.574-17.496zM70.66 57.553c-2.61 0-4.724-2.2-4.724-4.915 0-2.714 2.115-4.915 4.724-4.915 2.608 0 4.723 2.2 4.723 4.915s-2.115 4.915-4.723 4.915z"/>
    </g>
</svg>
